HIERARCHY
ROOT root
{
	OFFSET 0.000000 0.000000 0.000000
	CHANNELS 6 Xposition Yposition Zposition Zrotation Yrotation Xrotation
	JOINT lhip
	{
		OFFSET 0.058581 -0.082280 -0.017664
		CHANNELS 3 Zrotation Yrotation Xrotation
		JOINT lknee
		{
			OFFSET 0.043451 -0.386469 0.008037
			CHANNELS 3 Zrotation Yrotation Xrotation
			JOINT lankle
			{
				OFFSET -0.014790 -0.426874 -0.037428
				CHANNELS 3 Zrotation Yrotation Xrotation
				JOINT ltoe
				{
					OFFSET 0.041054 -0.060286 0.122042
					CHANNELS 3 Zrotation Yrotation Xrotation
					End Site
					{
						OFFSET 0.000000 0.000000 0.000000
					}
				}
			}
		}
	}
	JOINT rhip
	{
		OFFSET -0.060310 -0.090513 -0.013543
		CHANNELS 3 Zrotation Yrotation Xrotation
		JOINT rknee
		{
			OFFSET -0.043257 -0.383688 -0.004843
			CHANNELS 3 Zrotation Yrotation Xrotation
			JOINT rankle
			{
				OFFSET 0.019056 -0.420046 -0.034562
				CHANNELS 3 Zrotation Yrotation Xrotation
				JOINT rtoe
				{
					OFFSET -0.034840 -0.062106 0.130323
					CHANNELS 3 Zrotation Yrotation Xrotation
					End Site
					{
						OFFSET 0.000000 0.000000 0.000000
					}
				}
			}
		}
	}
	JOINT lowerback
	{
		OFFSET 0.004439 0.124404 -0.038385
		CHANNELS 3 Zrotation Yrotation Xrotation
		JOINT upperback
		{
			OFFSET 0.004488 0.137956 0.026820
			CHANNELS 3 Zrotation Yrotation Xrotation
			JOINT chest
			{
				OFFSET -0.002265 0.056032 0.002855
				CHANNELS 3 Zrotation Yrotation Xrotation
				JOINT lowerneck
				{
					OFFSET -0.013390 0.211636 -0.033468
					CHANNELS 3 Zrotation Yrotation Xrotation
					JOINT upperneck
					{
						OFFSET 0.010113 0.088937 0.050410
						CHANNELS 3 Zrotation Yrotation Xrotation
						End Site
						{
							OFFSET 0.000000 0.000000 0.000000
						}
					}
				}
				JOINT lclavicle
				{
					OFFSET 0.071702 0.114000 -0.018898
					CHANNELS 3 Zrotation Yrotation Xrotation
					JOINT lshoulder
					{
						OFFSET 0.122921 0.045205 -0.019046
						CHANNELS 3 Zrotation Yrotation Xrotation
						JOINT lelbow
						{
							OFFSET 0.255332 -0.015649 -0.022946
							CHANNELS 3 Zrotation Yrotation Xrotation
							JOINT lwrist
							{
								OFFSET 0.265709 0.012698 -0.007375
								CHANNELS 3 Zrotation Yrotation Xrotation
								End Site
								{
									OFFSET 0.000000 0.000000 0.000000
								}
							}
						}
					}
				}
				JOINT rclavicle
				{
					OFFSET -0.082954 0.112472 -0.023707
					CHANNELS 3 Zrotation Yrotation Xrotation
					JOINT rshoulder
					{
						OFFSET -0.113228 0.046853 -0.008472
						CHANNELS 3 Zrotation Yrotation Xrotation
						JOINT relbow
						{
							OFFSET -0.260127 -0.014369 -0.031269
							CHANNELS 3 Zrotation Yrotation Xrotation
							JOINT rwrist
							{
								OFFSET -0.269108 0.006794 -0.006027
								CHANNELS 3 Zrotation Yrotation Xrotation
								End Site
								{
									OFFSET 0.000000 0.000000 0.000000
								}
							}
						}
					}
				}
			}
		}
	}
}
MOTION
Frames: 15
Frame Time: 0.033333
0.620303 1.375850 1.366407 -1.271046 -0.311368 84.357227 -1.494884 -0.946547 6.603133 -3.192974 -15.167590 9.795897 4.036190 7.614081 -14.559720 0.000000 -0.000000 0.000000 1.982167 -0.829571 -8.168482 1.413802 -3.694100 21.954819 3.130892 -5.734037 -10.563767 0.000000 -0.000000 0.000000 0.974278 -1.221614 16.089661 1.744111 -0.034104 -0.616991 0.179277 -1.003786 2.962420 1.730601 4.827410 6.866439 -3.089212 -0.320971 18.416291 -27.623221 0.794877 3.149162 -54.385769 -9.535368 9.296379 11.351095 -30.993501 0.853515 -2.612432 -3.786237 -6.558309 28.551058 3.535135 3.243771 55.102078 7.360863 13.305606 -15.547605 24.781816 -10.651863 4.206834 4.410648 -8.073506 
0.615890 1.358653 1.365534 -1.827464 -0.138557 84.168637 -1.692438 -0.887208 5.712579 -3.414778 -14.535861 14.619870 3.859628 8.048983 -16.004934 0.000000 -0.000000 0.000000 2.366633 -0.948526 -6.712737 1.815240 -2.678325 21.727670 2.483999 -5.662094 -11.204011 0.000000 -0.000000 0.000000 1.660401 -1.025860 15.500833 1.696957 0.238921 -0.723459 0.055791 -0.873306 3.177008 1.368224 4.457522 7.265261 -3.172847 -0.007632 18.809255 -28.135272 1.201206 3.111352 -54.970974 -9.164835 9.045152 11.575379 -30.105404 0.490967 -1.736276 -3.413498 -7.100659 28.488213 3.368391 3.422805 54.903970 7.012273 13.394329 -14.553893 23.759955 -9.523074 3.945665 3.799290 -7.620325 
0.611152 1.343360 1.364786 -1.740887 -0.050627 83.616558 -1.721266 -1.025978 2.711630 -5.175721 -12.178592 23.570241 3.274450 8.247593 -15.633946 0.000000 -0.000000 0.000000 2.498782 -1.673872 -4.698379 2.248426 -2.216905 21.258012 1.910720 -5.019445 -12.086082 0.000000 -0.000000 0.000000 2.039044 -0.510168 15.901177 1.808615 -0.165744 -1.045394 -0.009291 -0.811066 3.353013 1.300292 4.130646 7.039083 -3.141015 0.191688 19.383606 -28.293378 1.407326 3.064273 -55.509594 -8.867851 8.846844 11.426789 -29.537784 0.931108 -1.825037 -3.393399 -7.477146 28.616278 3.257010 3.399889 54.533088 6.852883 13.235516 -13.630470 22.703454 -8.618520 3.907072 3.410256 -7.437216 
0.604475 1.328167 1.364895 -0.487630 0.260877 82.554727 -0.718568 -1.686150 -1.556716 -7.421970 -9.006395 34.485927 1.130122 6.674746 -11.690047 0.000000 -0.000000 0.000000 3.388215 -2.975192 -1.691196 1.871710 -1.742406 19.842364 0.696875 -5.175043 -12.678490 0.000000 -0.000000 0.000000 2.061472 0.058606 16.685434 2.346798 -1.203250 -0.819641 0.284779 -0.935048 3.347503 1.027767 3.649443 6.912275 -2.727745 0.260387 19.368496 -28.397519 1.089831 3.249506 -55.763980 -8.693680 8.741680 10.895431 -29.009865 2.376346 -3.475130 -3.259180 -7.797475 28.584310 3.289889 3.325395 54.375187 6.786954 12.918623 -13.113584 21.508549 -7.909544 4.403559 3.236397 -7.915264 
0.600475 1.313592 1.365494 0.097687 0.153335 81.706740 -0.349247 -2.765128 -6.572903 -9.168275 -5.770226 44.913121 -0.787794 5.471080 -5.258456 0.000000 -0.000000 0.000000 3.501764 -3.631632 0.839254 1.728835 -1.687670 18.699469 -0.606742 -5.116464 -13.109681 0.000000 -0.000000 0.000000 2.245904 1.066342 17.407650 2.606879 -1.823185 -0.556965 0.259104 -1.018586 3.157052 0.697832 2.863860 7.261693 -2.075410 0.193409 18.768462 -28.572378 0.616472 3.581941 -55.771172 -8.452327 8.942456 10.582611 -28.740946 3.419889 -4.246709 -3.231706 -7.521420 28.512568 3.311244 3.647698 54.478803 6.802592 12.296269 -13.302432 20.399729 -8.033319 4.312342 3.098054 -8.422970 
0.600163 1.299519 1.366089 -0.292065 -0.657844 81.155455 -1.008816 -3.751072 -11.588671 -9.279324 -1.619111 53.236448 1.268136 6.572709 -4.517853 0.000000 -0.000000 0.000000 2.641459 -3.215155 2.291262 1.729797 -1.522598 18.665462 -1.037540 -5.266764 -13.960050 0.000000 -0.000000 0.000000 2.269106 2.182405 18.243958 2.451540 -1.700160 -1.052287 0.011731 -0.790291 3.364860 0.653555 1.706283 7.634545 -1.893701 0.310439 18.505764 -28.825040 0.404125 3.773986 -55.771178 -8.235156 9.016523 10.400040 -28.842696 4.340084 -5.065372 -2.976067 -7.289250 28.335343 3.392483 4.091377 54.309389 6.514570 12.048769 -13.399588 19.974441 -8.055177 4.582156 2.878812 -8.416149 
0.596479 1.284806 1.366200 -0.684026 -0.839186 80.547956 -0.087534 -3.617829 -16.396984 -7.588073 2.446680 59.607596 3.006673 8.566662 -5.621620 0.000000 -0.000000 0.000000 2.503520 -4.314646 4.025110 1.651821 -0.966829 18.309660 -1.225266 -5.005303 -14.376277 0.000000 -0.000000 0.000000 2.408620 3.452939 18.997824 2.423859 -1.600613 -1.502947 0.023105 -0.452848 3.766045 0.634261 0.644018 7.585183 -1.481199 0.245966 18.852240 -28.941499 0.526779 3.687295 -55.587002 -8.075754 8.706366 9.587233 -29.050837 4.988746 -5.306178 -2.764102 -6.685694 28.175316 3.110678 4.043632 54.269718 6.217217 11.768421 -13.160728 19.718661 -7.896572 4.848221 2.821797 -8.076436 
0.593060 1.269301 1.366168 -1.211182 -1.188394 80.112650 0.939135 -3.443448 -20.640940 -6.389535 5.173080 63.049867 3.655332 8.941264 -6.298067 0.000000 -0.000000 0.000000 2.268854 -5.183201 5.676227 1.478845 0.153669 17.962540 -0.939411 -4.616003 -15.179026 0.000000 -0.000000 0.000000 2.261107 4.492605 19.475923 2.382180 -1.545296 -1.802878 -0.026943 -0.061927 4.006115 0.467341 0.256952 7.601934 -1.135781 -0.151512 19.348900 -29.082041 0.869798 3.696308 -55.400062 -7.699015 8.318812 9.474939 -29.150946 5.063959 -5.178511 -2.734826 -6.967839 28.213022 3.016733 4.368114 54.154736 6.203843 11.610360 -12.973730 19.436022 -7.612602 4.540244 2.749069 -7.727894 
0.592659 1.254762 1.365064 -1.627542 -1.834533 79.717154 1.254259 -3.673905 -24.002088 -6.326458 6.529068 62.947273 3.474118 8.519699 -6.575885 0.000000 -0.000000 0.000000 1.638641 -5.166260 6.994884 1.404883 0.945113 18.234805 -1.349455 -4.531956 -16.063192 0.000000 -0.000000 0.000000 2.201282 5.135426 20.225011 2.078225 -1.440108 -2.146421 -0.213062 0.306016 4.169759 0.477899 0.030968 7.784209 -1.025402 -0.409210 19.166367 -29.296442 1.211261 3.673013 -55.302236 -7.261846 8.066869 9.615724 -29.110642 4.724513 -4.754840 -2.575250 -7.100205 27.962752 2.924142 4.524091 54.172415 6.025027 11.603735 -12.882836 19.882959 -7.362762 4.467045 2.857828 -7.783716 
0.591908 1.239969 1.362129 -2.271346 -2.084870 79.376892 1.822610 -3.576450 -26.344473 -7.341011 6.137829 59.888109 1.668756 7.185645 -5.768645 0.000000 -0.000000 0.000000 1.268787 -5.291162 7.424604 1.229646 0.976269 19.951635 -1.123256 -4.766342 -17.505557 0.000000 -0.000000 0.000000 2.521642 5.653326 20.828357 1.871410 -1.165000 -2.179969 -0.425395 0.483411 4.082403 0.450408 0.149252 8.161907 -0.986018 -0.743649 18.924370 -29.372131 1.466482 3.773995 -55.259606 -6.736640 7.929456 9.821121 -28.985546 4.462873 -4.459143 -2.434375 -7.375086 27.461463 2.859868 4.719756 54.237200 5.896990 11.561100 -12.601370 20.811437 -7.178511 4.301899 3.059850 -8.270957 
0.591316 1.225133 1.356964 -2.643996 -2.474877 78.970689 2.184040 -3.898462 -27.495678 -8.811015 4.784127 54.599881 -0.760141 5.327565 -0.901663 0.000000 -0.000000 0.000000 1.044473 -4.896679 7.231773 1.100383 0.999742 23.184263 -1.432766 -5.424833 -19.257960 0.000000 -0.000000 0.000000 2.260527 5.724396 21.280888 1.799854 -1.095833 -1.962132 -0.551646 0.675700 4.045000 0.417916 0.716687 8.378915 -0.992249 -1.143266 18.752268 -29.382643 1.777847 3.664499 -55.092669 -6.170190 8.095636 10.131824 -28.778337 4.015643 -4.425394 -2.146918 -7.833238 27.520021 2.889261 4.815830 53.920610 5.866579 11.810424 -12.807445 21.847575 -7.189972 4.215229 3.073769 -8.443609 
0.591584 1.209407 1.348824 -2.688617 -2.866993 78.447257 1.990689 -4.419423 -27.120692 -9.567303 2.402114 47.404258 -3.990432 3.664616 5.531918 0.000000 -0.000000 0.000000 0.949140 -4.016900 6.583551 0.718055 0.308602 27.818098 -1.933467 -6.433788 -21.798577 0.000000 -0.000000 0.000000 1.721611 5.412287 21.546172 1.914298 -1.103668 -1.465126 -0.585302 0.794666 3.687572 0.695394 1.361010 9.296779 -1.149023 -1.285015 18.052708 -29.377902 2.056055 3.803399 -54.884224 -5.687757 8.261737 10.223562 -28.172486 3.212080 -4.533324 -2.530757 -8.282568 27.341344 3.036044 4.953708 53.777928 5.735935 12.035514 -13.384585 23.140409 -7.370162 4.612685 3.432992 -8.486960 
0.591003 1.192360 1.336619 -2.781732 -2.534455 77.765451 2.207482 -4.687351 -25.381151 -9.526570 -0.783620 39.681575 -6.187219 3.275993 10.366903 0.000000 -0.000000 0.000000 1.154912 -3.616807 5.501906 1.000706 -0.761028 33.889693 -2.069734 -7.043036 -24.074424 0.000000 -0.000000 0.000000 1.785946 5.098601 21.505687 2.061250 -1.018142 -0.888277 -0.600365 0.741934 3.671470 1.236697 1.889899 9.959374 -1.248037 -1.558076 17.870666 -28.766662 1.875813 4.279214 -55.237892 -5.298855 8.620589 10.379341 -27.695416 2.772820 -4.446163 -2.384826 -8.671824 27.071875 2.986513 4.768910 53.611838 5.660439 12.205717 -13.534748 24.526077 -7.518630 4.568074 3.804287 -9.072160 
0.591199 1.173994 1.321078 -3.321851 -2.603003 76.869825 1.731796 -4.078506 -22.456633 -7.856800 -2.726301 32.225411 -7.785271 4.316949 14.291406 0.000000 -0.000000 0.000000 1.146555 -2.842015 4.183519 1.083502 -0.886086 41.313858 -1.696042 -7.057927 -25.819495 0.000000 -0.000000 0.000000 1.545910 4.399875 21.428297 2.144017 -0.711222 -0.043277 -0.701484 0.252240 3.485694 1.189892 3.022104 10.506781 -1.989347 -1.459808 18.041398 -29.100030 2.461827 3.826208 -54.383344 -4.269388 8.635580 10.006969 -27.331658 2.618709 -4.611856 -2.153812 -8.054747 27.154189 3.250162 4.902323 53.251062 6.033409 12.311046 -13.858671 25.416942 -8.309101 4.367800 4.019805 -8.662055 
0.591360 1.153361 1.301524 -4.262041 -1.883923 75.679677 1.918758 -2.759715 -18.872492 -4.386244 -1.748467 25.423004 -13.020404 6.607802 20.035977 0.000000 -0.000000 0.000000 1.776567 -2.044725 3.031615 -0.648627 -2.674538 49.216038 -0.890932 -4.354070 -27.523406 0.000000 -0.000000 0.000000 1.998685 4.119590 20.926173 1.879827 -1.201826 2.827190 -0.178340 0.966394 0.958615 0.486623 2.933832 13.295210 -0.288439 -0.597483 17.388923 -28.873131 -1.279522 3.711868 -55.535739 0.982725 7.352364 12.021077 -27.526530 -0.151384 -4.229824 -3.819825 -6.565905 26.936489 6.090771 5.513242 52.575139 2.445971 7.037200 -12.197188 28.765262 -5.859255 0.785300 5.431518 -8.345313 
